<svg xmlns="http://www.w3.org/2000/svg" width="2007" height="1982" viewBox="0 0 2007 1982" version="1.1">
	<path d="M 953.500 0.597 C 878.276 4.389, 820.683 12.301, 757.197 27.564 C 616.492 61.394, 482.476 127.540, 368.686 219.322 C 330.676 249.980, 281.407 297.182, 250.552 332.500 C 165.978 429.305, 99.611 541.151, 57.704 657.500 C 48.889 681.974, 49.344 679.659, 53.220 680.356 C 59.163 681.425, 96.117 684.930, 117.500 686.454 C 164.696 689.817, 238.698 690.766, 267.603 688.379 L 274.706 687.793 275.302 670.146 C 277.353 609.367, 299.976 557.181, 343 513.980 C 389.938 466.849, 455.263 434.451, 542.426 415.074 C 567.128 409.582, 580.697 405.116, 591.566 398.897 C 607.424 389.823, 620.166 374.597, 628.554 354.696 C 630.917 349.088, 636.527 332.800, 641.019 318.500 C 651.546 284.991, 655.775 273.487, 663.533 257.251 C 689.384 203.154, 734.741 151.398, 787.116 116.233 C 800.886 106.988, 813.272 99.796, 829 91.914 C 875.276 68.723, 921.541 55.736, 979 49.810 C 997.212 47.931, 1044.651 48.235, 1064 50.354 C 1127.751 57.336, 1188.677 76.386, 1238.500 104.916 C 1252.260 112.795, 1274.991 127.774, 1285.454 135.856 C 1289.828 139.235, 1293.729 142, 1294.121 142 C 1296.710 142, 1349.790 64.387, 1348.250 62.853 C 1347.023 61.629, 1312.329 49.532, 1292.848 43.535 C 1219.339 20.907, 1150.087 8.412, 1062.500 1.975 C 1048.603 0.953, 966.917 -0.079, 953.500 0.597 M 1448.308 131.253 C 1432.813 162.010, 1410.386 201.335, 1389.809 233.832 C 1385.514 240.614, 1382 246.587, 1382 247.104 C 1382 247.621, 1383.760 251.545, 1385.911 255.823 C 1405.685 295.152, 1415.543 331.368, 1423.961 395.617 C 1430.112 442.555, 1435.097 457.585, 1449.621 472.981 C 1466.166 490.520, 1491.444 499.899, 1536 505.030 C 1610.425 513.601, 1669.605 540.436, 1712.355 584.997 C 1781.573 657.149, 1791.512 765.468, 1736.481 847.932 C 1700.160 902.359, 1646.857 936.028, 1572 951.825 C 1528.441 961.018, 1481.642 964.439, 1409.500 963.704 C 1286.778 962.453, 847.460 960.954, 757.500 961.479 C 630.396 962.221, 599.893 961.317, 553 955.416 C 517.408 950.938, 477.832 941.547, 448 930.502 C 419.973 920.126, 385.957 901.205, 365.005 884.339 C 354.717 876.057, 338.292 859.785, 331.599 851.246 L 326.699 844.992 299.599 845.618 C 218.300 847.498, 114.334 837.980, 30.344 820.968 C 22.283 819.336, 15.565 818, 15.415 818 C 14.505 818, 9.137 853.409, 6.547 876.500 C -5.273 981.855, -0.326 1095.430, 20.507 1197 C 59.254 1385.912, 152.211 1553.486, 301.500 1703.548 C 445.294 1848.087, 616.133 1936.491, 813.500 1968.493 C 846.888 1973.907, 874.641 1977.061, 916.500 1980.199 C 939.644 1981.934, 1036.568 1981.939, 1060 1980.206 C 1086.176 1978.270, 1116.138 1975.246, 1136.949 1972.439 C 1332.622 1946.045, 1505.082 1865.285, 1653.485 1730.555 C 1689.173 1698.155, 1732.310 1652.957, 1758.519 1620.500 C 1841.033 1518.319, 1906.694 1387.477, 1951.976 1235 C 1955.325 1223.725, 1958.306 1213.709, 1958.602 1212.743 C 1959.111 1211.077, 1955.454 1211, 1887.896 1211.243 L 1816.653 1211.500 1814.280 1219.500 C 1740.660 1467.685, 1589.107 1651.961, 1367.500 1762.745 C 1266.915 1813.029, 1167.786 1840.659, 1054.500 1849.989 C 1032.535 1851.798, 976.666 1852.398, 951.500 1851.096 C 822.738 1844.430, 705.274 1810.932, 591.306 1748.378 C 463.296 1678.116, 359.144 1582.278, 278.457 1460.500 C 261.523 1434.942, 250.199 1415.947, 237.093 1391.114 C 183.732 1290.006, 151.676 1177.390, 142.699 1059.500 L 141.480 1043.500 1001.490 1042.951 C 1655.183 1042.533, 1864.979 1042.115, 1876 1041.207 C 1922.371 1037.388, 1947.567 1032.210, 1959.402 1024.067 C 1972.726 1014.900, 1981.309 996.744, 1985.199 969.500 C 1987.065 956.427, 1986.749 914.306, 1984.640 895 C 1970.199 762.824, 1916.221 605.536, 1842.733 481.500 C 1799.057 407.781, 1753.762 349.539, 1692.593 288.442 C 1625.261 221.190, 1556.532 168.459, 1477.724 123.587 C 1467.496 117.764, 1458.762 113.002, 1458.314 113.003 C 1457.866 113.005, 1453.363 121.218, 1448.308 131.253" stroke="none" fill="black" fill-rule="evenodd"/>
</svg>